<?xml version="1.0" encoding="iso-8859-1"?>
<!-- Generator: Adobe Illustrator 19.0.0, SVG Export Plug-In . SVG Version: 6.00 Build 0)  -->
<svg version="1.1" id="Capa_1" xmlns="http://www.w3.org/2000/svg" xmlns:xlink="http://www.w3.org/1999/xlink" x="0px" y="0px"
	 viewBox="0 0 496 496" style="enable-background:new 0 0 496 496;" xml:space="preserve">
<g>
	<g>
		<g>
			<path d="M457.496,296c-2-6.096-4.44-12-7.28-17.648l27.208-27.208l-56.568-56.568l-27.208,27.208
				c-5.648-2.84-11.544-5.28-17.64-7.28V176h-24v-16h-16v16h-40v38.504c-6.096,2-11.992,4.432-17.64,7.28l-27.208-27.208
				l-56.568,56.568l27.208,27.208c-2.84,5.648-5.28,11.552-7.28,17.648H176v80h38.504c2,6.096,4.44,12,7.28,17.648l-27.208,27.208
				l56.568,56.568l27.208-27.2c5.648,2.84,11.544,5.28,17.64,7.28V480H16V112h96V16h224v128h16V0H100.688L0,100.688V496h296h24h56
				v-38.504c6.096-2,11.992-4.432,17.64-7.28l27.208,27.2l56.568-56.568l-27.208-27.208c2.84-5.648,5.28-11.552,7.28-17.648H496V296
				H457.496z M96,27.312V96H27.312L96,27.312z M480,360h-34.528l-1.624,5.864c-2.472,8.928-5.984,17.44-10.44,25.288l-3.016,5.296
				l24.408,24.4l-33.944,33.944l-24.408-24.4l-5.296,3.008c-7.848,4.464-16.352,7.976-25.28,10.44L360,445.464V480h-40h-8v-34.536
				l-5.864-1.624c-8.928-2.464-17.432-5.976-25.28-10.44l-5.296-3.008l-24.408,24.4l-33.944-33.944l24.408-24.4l-3.016-5.296
				c-4.456-7.848-7.968-16.36-10.44-25.288L226.528,360H192v-48h34.528l1.624-5.864c2.472-8.928,5.984-17.44,10.44-25.288
				l3.016-5.296l-24.408-24.4l33.944-33.944l24.4,24.4l5.304-3.008c7.848-4.464,16.352-7.976,25.28-10.44l5.872-1.624V192h48v34.536
				l5.864,1.624c8.928,2.464,17.432,5.976,25.28,10.44l5.304,3.008l24.4-24.4l33.944,33.944l-24.408,24.4l3.016,5.296
				c4.456,7.848,7.968,16.36,10.44,25.288l1.632,5.864H480V360z"/>
			<path d="M336,256c-44.112,0-80,35.888-80,80s35.888,80,80,80c20.416,0,39.848-7.688,54.728-21.648l-10.952-11.664
				C367.872,393.848,352.328,400,336,400c-35.288,0-64-28.712-64-64c0-35.288,28.712-64,64-64c35.288,0,64,28.712,64,64
				c0,13.336-4.064,26.12-11.744,36.952l13.064,9.248c9.6-13.552,14.68-29.536,14.68-46.2C416,291.888,380.112,256,336,256z"/>
			<path d="M304,336c0,17.648,14.352,32,32,32s32-14.352,32-32s-14.352-32-32-32S304,318.352,304,336z M352,336
				c0,8.824-7.176,16-16,16c-8.824,0-16-7.176-16-16c0-8.824,7.176-16,16-16C344.824,320,352,327.176,352,336z"/>
			<path d="M192,192h-48v-32H96v-32H32v144h48h16h32h16h48V192z M80,160v96H48V144h32V160z M128,192v64H96v-80h32V192z M176,256h-32
				v-48h32V256z"/>
			<rect x="32" y="288" width="16" height="16"/>
			<rect x="64" y="288" width="96" height="16"/>
			<rect x="32" y="320" width="128" height="16"/>
			<rect x="32" y="352" width="128" height="16"/>
			<rect x="32" y="384" width="128" height="16"/>
			<rect x="32" y="416" width="96" height="16"/>
			<rect x="144" y="416" width="16" height="16"/>
			<rect x="56" y="448" width="16" height="16"/>
			<rect x="88" y="448" width="16" height="16"/>
			<rect x="120" y="448" width="16" height="16"/>
			<rect x="128" y="32" width="16" height="16"/>
			<rect x="160" y="32" width="160" height="16"/>
			<rect x="304" y="96" width="16" height="16"/>
			<rect x="128" y="96" width="160" height="16"/>
			<rect x="128" y="64" width="192" height="16"/>
		</g>
	</g>
</g>
<g>
</g>
<g>
</g>
<g>
</g>
<g>
</g>
<g>
</g>
<g>
</g>
<g>
</g>
<g>
</g>
<g>
</g>
<g>
</g>
<g>
</g>
<g>
</g>
<g>
</g>
<g>
</g>
<g>
</g>
</svg>
